<?xml version="1.0" standalone="no"?><!DOCTYPE svg PUBLIC "-//W3C//DTD SVG 1.1//EN" "http://www.w3.org/Graphics/SVG/1.1/DTD/svg11.dtd"><svg t="1547520256772" class="icon" style="" viewBox="0 0 1024 1024" version="1.1" xmlns="http://www.w3.org/2000/svg" p-id="20498" xmlns:xlink="http://www.w3.org/1999/xlink" width="200" height="200"><defs><style type="text/css"></style></defs><path d="M344.902796 497.150804" p-id="20499"></path><path d="M758.05244 51.045583 265.950629 51.045583c-38.438451 0-75.217099 31.162744-75.217099 69.612451L190.733531 787.590686c0 38.445614 36.778648 75.233472 75.217099 75.233472l293.177226 0 73.937966 0 195.10356-211.680097 5.096065-12.300141 0-77.494978L833.265446 120.658034C833.265446 82.208327 796.490891 51.045583 758.05244 51.045583L758.05244 51.045583zM618.859261 793.481859 618.859261 665.769153c0-19.222807 15.57779-34.80469 34.792411-34.80469L771.187599 630.964462 618.859261 793.481859 618.859261 793.481859zM784.423041 582.113871 653.651672 582.113871c-38.434358 0-86.448908 31.162744-86.448908 69.608358l0 162.246221L274.375509 813.968449c-19.218714 0-34.800597-15.584953-34.800597-34.80469L239.574912 134.700865c0-19.222807 15.581883-34.808784 34.800597-34.808784L749.626537 99.892081c19.218714 0 34.796504 15.585977 34.796504 34.808784L784.423041 582.113871 784.423041 582.113871zM318.147432 285.710161l387.708206 0 0-46.044686L318.147432 239.665475 318.147432 285.710161 318.147432 285.710161zM318.147432 390.127302l387.708206 0 0-46.040592L318.147432 344.086709 318.147432 390.127302 318.147432 390.127302zM318.147432 494.544443l178.910763 0 0-46.041616L318.147432 448.502827 318.147432 494.544443 318.147432 494.544443zM318.147432 598.962607l178.910763 0 0-46.040592L318.147432 552.922015 318.147432 598.962607 318.147432 598.962607zM318.147432 598.962607" p-id="20500"></path></svg>