<?xml version="1.0" standalone="no"?><!DOCTYPE svg PUBLIC "-//W3C//DTD SVG 1.1//EN" "http://www.w3.org/Graphics/SVG/1.1/DTD/svg11.dtd"><svg t="1547520204461" class="icon" style="" viewBox="0 0 1024 1024" version="1.1" xmlns="http://www.w3.org/2000/svg" p-id="18969" xmlns:xlink="http://www.w3.org/1999/xlink" width="200" height="200"><defs><style type="text/css"></style></defs><path d="M520.563 745.919c-21.759 0-39.46 17.7-39.46 39.461 0 21.759 17.702 39.461 39.46 39.461 21.76 0 39.463-17.701 39.463-39.461-0.001-21.76-17.703-39.461-39.463-39.461z" fill="#515151" p-id="18970"></path><path d="M715.796 124.789h-390.462c-32.847 0-59.572 26.724-59.572 59.572v655.279c0 32.848 26.724 59.572 59.572 59.572h390.461c32.847 0 59.571-26.723 59.571-59.572v-655.279c0.001-32.847-26.722-59.572-59.571-59.572zM325.333 164.503h390.461c10.949 0 19.858 8.909 19.858 19.858v490.93h-430.176v-490.931c0-10.948 8.908-19.857 19.857-19.857zM715.796 859.496h-390.462c-10.949 0-19.858-8.907-19.858-19.857v-121.233h430.177v121.234c0.001 10.949-8.907 19.856-19.857 19.856z" fill="#515151" p-id="18971"></path></svg>