<?xml version="1.0" standalone="no"?><!DOCTYPE svg PUBLIC "-//W3C//DTD SVG 1.1//EN" "http://www.w3.org/Graphics/SVG/1.1/DTD/svg11.dtd"><svg t="1547520306960" class="icon" style="" viewBox="0 0 1024 1024" version="1.1" xmlns="http://www.w3.org/2000/svg" p-id="21686" xmlns:xlink="http://www.w3.org/1999/xlink" width="200" height="200"><defs><style type="text/css"></style></defs><path d="M718 496.8c17.6 0 32-14.4 32-32s-14.4-32-32-32h-48.2l41.4-41.4c12.4-12.4 12.4-32.8 0-45.3-12.4-12.4-32.8-12.4-45.3 0l-65.5 65.5-65.4-65.5c-12.4-12.4-32.8-12.4-45.3 0-12.4 12.4-12.4 32.8 0 45.3l41.4 41.4H482c-17.6 0-32 14.4-32 32s14.4 32 32 32h86v44.8h-86c-17.6 0-32 14.4-32 32s14.4 32 32 32h86v47c0 17.6 14.4 32 32 32s32-14.4 32-32v-47h86c17.6 0 32-14.4 32-32s-14.4-32-32-32h-86v-44.8h86zM336.3 337.2c-17.7 0-32 14.3-32 32v94.2c0 17.7 14.3 32 32 32s32-14.3 32-32v-94.2c0-17.6-14.3-32-32-32zM336.3 526.6c-17.7 0-32 14.3-32 32v94.2c0 17.7 14.3 32 32 32s32-14.3 32-32v-94.2c0-17.7-14.3-32-32-32z" p-id="21687" fill="#515151"></path><path d="M896.1 441.6c10.8-2.6 22.1-4 33.7-4 10.4 0 20.5 1.1 30.3 3.3V256c0-35.3-28.7-64-64-64H128c-35.3 0-64 28.7-64 64v184.9c10.2-2.3 20.8-3.5 31.7-3.5 11.1 0 22 1.3 32.3 3.7 26.9 12.3 45.7 39.4 45.7 71S155 570.7 128 583c-10.4 2.4-21.2 3.7-32.3 3.7-10.9 0-21.5-1.2-31.7-3.5V768c0 35.3 28.7 64 64 64h768c35.3 0 64-28.7 64-64V583.1c-9.8 2.1-19.9 3.3-30.3 3.3-11.6 0-22.9-1.4-33.7-4-26.2-12.6-44.3-39.4-44.3-70.4s18.1-57.8 44.4-70.4z m0 208.4v64c0 35.3-18.7 54-54 54H368.3v-33.6c-0.3-17.4-14.5-31.4-32-31.4s-31.7 14-32 31.4V768H182c-35.3 0-54-18.7-54-54v-63.7c62.8-14.6 109.7-71 109.7-138.3S190.9 388.3 128 373.7V310c0-35.3 18.7-54 54-54h122.2v34h0.1c1.5 16.3 15.2 29 31.9 29s30.3-12.7 31.9-29h0.1v-34H842c35.3 0 54 18.7 54 54v64c-62.2 15.1-108.3 71.2-108.3 138s46.2 122.8 108.4 138z" p-id="21688" fill="#515151"></path></svg>